<svg width="47" height="47" viewBox="0 0 47 47" fill="none" xmlns="http://www.w3.org/2000/svg">
<g id="Email icon" clip-path="url(#clip0_191_297)">
<g id="Style_2">
<g id="Group">
<g id="Group_2">
<path id="Vector" d="M23.4187 45.8689C11.0206 45.8689 0.934998 35.7818 0.934998 23.3852C0.934998 10.9872 11.0206 0.90155 23.4187 0.90155C35.8152 0.90155 45.9023 10.9872 45.9023 23.3852C45.9023 35.7818 35.8152 45.8689 23.4187 45.8689Z" fill="#1F353F"/>
<g id="Vector_2">
<mask id="path-2-inside-1_191_297" fill="white">
<path d="M23.4186 1.44115C35.5188 1.44115 45.3627 11.285 45.3627 23.3852C45.3627 35.4854 35.5188 45.3292 23.4186 45.3292C11.3185 45.3292 1.4746 35.4854 1.4746 23.3852C1.4746 11.285 11.3185 1.44115 23.4186 1.44115ZM23.4186 0.361938C10.7026 0.361938 0.395386 10.6692 0.395386 23.3852C0.395386 36.0998 10.7026 46.4085 23.4186 46.4085C36.1347 46.4085 46.4419 36.0998 46.4419 23.3852C46.4419 10.6692 36.1347 0.361938 23.4186 0.361938Z"/>
</mask>
<path d="M23.4186 1.44115C35.5188 1.44115 45.3627 11.285 45.3627 23.3852C45.3627 35.4854 35.5188 45.3292 23.4186 45.3292C11.3185 45.3292 1.4746 35.4854 1.4746 23.3852C1.4746 11.285 11.3185 1.44115 23.4186 1.44115ZM23.4186 0.361938C10.7026 0.361938 0.395386 10.6692 0.395386 23.3852C0.395386 36.0998 10.7026 46.4085 23.4186 46.4085C36.1347 46.4085 46.4419 36.0998 46.4419 23.3852C46.4419 10.6692 36.1347 0.361938 23.4186 0.361938Z" fill="#1F353F"/>
<path d="M23.4186 21.4412C24.4731 21.4412 25.3627 22.3307 25.3627 23.3852L65.3627 23.3852C65.3627 0.23934 46.5645 -18.5589 23.4186 -18.5589V21.4412ZM25.3627 23.3852C25.3627 24.4397 24.4731 25.3292 23.4186 25.3292L23.4186 65.3293C46.5645 65.3293 65.3627 46.5311 65.3627 23.3852L25.3627 23.3852ZM23.4186 25.3292C22.3642 25.3292 21.4746 24.4397 21.4746 23.3852H-18.5254C-18.5254 46.5311 0.272787 65.3293 23.4186 65.3293L23.4186 25.3292ZM21.4746 23.3852C21.4746 22.3307 22.3642 21.4412 23.4186 21.4412V-18.5589C0.272786 -18.5589 -18.5254 0.239339 -18.5254 23.3852H21.4746ZM23.4186 -19.6381C-0.343085 -19.6381 -19.6046 -0.376532 -19.6046 23.3852H20.3954C20.3954 21.7149 21.7483 20.3619 23.4186 20.3619V-19.6381ZM-19.6046 23.3852C-19.6046 47.1447 -0.343899 66.4085 23.4186 66.4085L23.4186 26.4085C21.7491 26.4085 20.3954 25.0549 20.3954 23.3852H-19.6046ZM23.4186 66.4085C47.1812 66.4085 66.4419 47.1447 66.4419 23.3852L26.4419 23.3852C26.4419 25.0549 25.0882 26.4085 23.4186 26.4085L23.4186 66.4085ZM66.4419 23.3852C66.4419 -0.376532 47.1804 -19.6381 23.4186 -19.6381V20.3619C25.089 20.3619 26.4419 21.7149 26.4419 23.3852L66.4419 23.3852Z" fill="#1F353F" mask="url(#path-2-inside-1_191_297)"/>
</g>
</g>
</g>
<g id="Group_3">
<path id="Vector_3" d="M10.2745 18.6923L16.4978 22.4965L10.2745 30.3208V18.6923Z" fill="#FFF6EA" stroke="#FFF6EA"/>
<path id="Vector_4" d="M23.142 26.5573L23.4038 26.7173L23.665 26.5565L28.3395 23.678L35.1419 32.2384H11.6629L18.4583 23.694L23.142 26.5573Z" fill="#FFF6EA" stroke="#FFF6EA"/>
<path id="Vector_5" d="M36.5629 15.9356L23.4004 24.0419L10.2745 16.0194V14.532L36.5629 14.532V15.9356Z" fill="#FFF6EA" stroke="#FFF6EA"/>
<path id="Vector_6" d="M36.5629 18.6137V30.3602L30.2951 22.4736L36.5629 18.6137Z" fill="#FFF6EA" stroke="#FFF6EA"/>
</g>
</g>
</g>
<defs>
<clipPath id="clip0_191_297">
<rect width="46.0465" height="46.0465" fill="white" transform="translate(0.395386 0.361938)"/>
</clipPath>
</defs>
</svg>
