<svg width="47" height="47" viewBox="0 0 47 47" fill="none" xmlns="http://www.w3.org/2000/svg">
<g clip-path="url(#clip0_191_288)">
<path d="M23.3729 45.8696C10.9763 45.8696 0.889221 35.7825 0.889221 23.3859C0.889221 10.9893 10.9763 0.902252 23.3729 0.902252C35.7695 0.902252 45.8565 10.9893 45.8565 23.3859C45.8565 35.7825 35.7695 45.8696 23.3729 45.8696Z" fill="#1F353F"/>
<path d="M23.3721 1.44115C35.4723 1.44115 45.3162 11.285 45.3162 23.3852C45.3162 35.4854 35.4723 45.3292 23.3721 45.3292C11.272 45.3292 1.42809 35.4854 1.42809 23.3852C1.42809 11.285 11.272 1.44115 23.3721 1.44115ZM23.3721 0.361938C10.6568 0.361938 0.348877 10.6699 0.348877 23.3852C0.348877 36.1005 10.6568 46.4085 23.3721 46.4085C36.0875 46.4085 46.3954 36.1005 46.3954 23.3852C46.3954 10.6699 36.0875 0.361938 23.3721 0.361938Z" fill="#1F353F"/>
<path d="M28.1149 36.4553H24.6327H21.1475C21.1475 36.4553 21.1576 34.3875 21.1475 32.9701C16.3781 33.9975 15.0471 30.3563 15.0471 30.3563C14.1765 28.613 13.3038 27.7424 13.3038 27.7424C11.5605 26.7078 13.3038 26.8718 13.3038 26.8718C15.0471 26.8718 15.9176 28.6151 15.9176 28.6151C17.4473 31.2117 20.1683 30.7937 21.1454 30.3584C21.1454 29.4879 21.5267 28.1698 22.0159 27.7446C18.2099 27.3165 15.042 25.1307 15.042 20.7735C15.042 16.4164 15.9169 15.5458 16.7882 14.6731C16.6127 14.2436 15.8824 12.655 16.8148 10.3159C16.8148 10.3159 18.5272 10.3159 20.2705 12.9298C21.1339 12.0664 23.7556 12.0592 24.6276 12.0592C25.4968 12.0592 28.12 12.0664 28.9833 12.9298C30.7266 10.3159 32.4433 10.3159 32.4433 10.3159C33.3758 12.655 32.6462 14.2436 32.4699 14.6731C33.3405 15.5437 34.2132 16.4164 34.2132 20.7735C34.2132 25.1307 31.0497 27.315 27.2422 27.7446C27.7329 28.1698 28.1128 29.6692 28.1128 30.3584L28.1149 36.4553Z" fill="#FFF6EA"/>
</g>
<defs>
<clipPath id="clip0_191_288">
<rect width="46.0465" height="46.0465" fill="white" transform="translate(0.348877 0.361938)"/>
</clipPath>
</defs>
</svg>
