<svg width="49" height="48" viewBox="0 0 49 48" fill="none" xmlns="http://www.w3.org/2000/svg">
<g clip-path="url(#clip0_191_281)">
<path d="M24.182 47.4148C11.1656 47.4148 0.574158 37.0756 0.574158 24.369C0.574158 11.6625 11.1656 1.3233 24.182 1.3233C37.1984 1.3233 47.7898 11.6625 47.7898 24.369C47.7898 37.0756 37.1984 47.4148 24.182 47.4148Z" fill="#1F353F"/>
<path d="M24.182 1.87637C36.8872 1.87637 47.2232 11.9663 47.2232 24.369C47.2232 36.7717 36.8872 46.8617 24.182 46.8617C11.4768 46.8617 1.14074 36.7717 1.14074 24.369C1.14074 11.9663 11.4768 1.87637 24.182 1.87637ZM24.182 0.770172C10.8302 0.770172 0.00756836 11.3351 0.00756836 24.369C0.00756836 37.4015 10.8302 47.9679 24.182 47.9679C37.5338 47.9679 48.3564 37.4015 48.3564 24.369C48.3564 11.3366 37.5338 0.770172 24.182 0.770172Z" fill="#1F353F"/>
<path d="M36.7134 34.6095V25.5579C36.7134 20.7083 34.0618 18.4517 30.5248 18.4517C27.6707 18.4517 26.3925 19.9841 25.6808 21.0593V18.8219H20.305C20.3761 20.3042 20.305 34.6095 20.305 34.6095H25.6808L25.6808 25.7924C25.6808 25.3219 25.7156 24.8499 25.8576 24.5136C26.2459 23.5711 27.1298 22.5947 28.615 22.5947C30.561 22.5947 31.3392 24.0416 31.3392 26.1641V34.611L36.7134 34.6095ZM14.6407 16.667C16.5142 16.667 17.6821 15.4531 17.6821 13.9384C17.6474 12.3897 16.5142 11.2112 14.6754 11.2112C12.8367 11.2112 11.6355 12.3882 11.6355 13.9369C11.6355 15.4531 12.8019 16.6655 14.6074 16.6655H14.6407V16.667ZM17.3286 34.6095V18.8219H11.9543L11.9543 34.6095H17.3286Z" fill="white"/>
</g>
<defs>
<clipPath id="clip0_191_281">
<rect width="48.3488" height="47.1977" fill="white" transform="translate(0 0.786377)"/>
</clipPath>
</defs>
</svg>
