<svg width="101" height="115" viewBox="0 0 101 115" fill="none" xmlns="http://www.w3.org/2000/svg">
<path d="M83.9064 1L91.1759 9.36693C96.8664 15.9165 100 24.301 100 32.9773V32.9773C100 40.1613 97.8506 47.181 93.8282 53.1333L88.9176 60.4001C85.5927 65.3204 81.6056 69.7591 77.0688 73.5909L66.9283 82.1556C61.058 87.1137 54.3895 91.0404 47.2062 93.7688L40.4291 96.3429C35.9636 98.0389 31.2267 98.9082 26.4499 98.9082H19.3823C15.3663 98.9082 11.4608 97.593 8.26285 95.1638V95.1638C3.68709 91.6878 1 86.2722 1 80.5259V72.7778C1 69.5871 2.20035 66.5131 4.36255 64.1667V64.1667C9.20279 58.9141 17.42 58.6814 22.5497 63.6517L22.856 63.9485C25.4072 66.4204 26.8473 69.821 26.8473 73.3733V81.3407C26.8473 86.7874 25.4543 92.1436 22.8007 96.9001L13.1921 114.124" stroke="black" stroke-width="1.01438"/>
<path d="M11.5262 101.923C11.5262 105.807 13.1651 108.961 13.1651 113.039" stroke="#282120" stroke-width="1.01438" stroke-linecap="round"/>
<path d="M13.9845 114.15C15.4009 114.15 17.8704 111.601 18.9922 110.383C20.5615 108.68 22.6141 108.575 24.2276 107.481" stroke="#282120" stroke-width="1.01438" stroke-linecap="round"/>
</svg>
